# xmcd
#
# Track frame offsets:
#	182
#	18400
#	35350
#	50250
#
# Disc length: 977 seconds
#
# Revision: 0
# Processed by: cddbd v1.5.2PL0 Copyright (c) Steve Scherf et al.
# Submitted via: EasyCDDAExtractor 2011.0.0.0
#
DISCID=2603cf04
DTITLE=Boney M. - Christmas Mega Mix
DYEAR=1992
DGENRE=Rap
TTITLE0=Medley Mary's Boy Child and Oh My Lord (Radio Version)
TTITLE1=Zion's Daughter
TTITLE2=When A Child Is Born
TTITLE3=Medley Mary's Boy Child and Oh My Lord (Long Version)
EXTD=YEAR: 2001 ID3G: 15\n
EXTT0=
EXTT1=
EXTT2=
EXTT3=
PLAYORDER=
